<mxfile host="app.diagrams.net" modified="2024-02-11T13:16:57.041Z" agent="Mozilla/5.0 (Windows NT 10.0; Win64; x64) AppleWebKit/537.36 (KHTML, like Gecko) Chrome/121.0.0.0 Safari/537.36" etag="WI32c-MLVPuMc_VvxYWb" version="23.1.0" type="device">
  <diagram name="Page-1" id="nn0_k3W9zc8CMEnyU6vp">
    <mxGraphModel dx="1500" dy="824" grid="0" gridSize="10" guides="1" tooltips="1" connect="1" arrows="1" fold="1" page="1" pageScale="1" pageWidth="1100" pageHeight="850" background="#0d1117" math="0" shadow="0">
      <root>
        <mxCell id="0" />
        <mxCell id="1" parent="0" />
        <mxCell id="aia2x_jUWNvBXvAyQFXD-1" value="&lt;font style=&quot;font-size: 14px;&quot;&gt;&lt;b&gt;Student&lt;/b&gt;&lt;/font&gt;" style="whiteSpace=wrap;html=1;align=center;labelBackgroundColor=none;fontFamily=Times New Roman;rounded=1;fontColor=#ffffff;fillColor=#0d1117;strokeColor=#FFFFFF;" parent="1" vertex="1">
          <mxGeometry x="171" y="203" width="129" height="50" as="geometry" />
        </mxCell>
        <mxCell id="aia2x_jUWNvBXvAyQFXD-3" value="Student ID" style="ellipse;whiteSpace=wrap;html=1;align=center;fontStyle=4;labelBackgroundColor=none;fontFamily=Times New Roman;rounded=1;fontColor=#ffffff;fillColor=#0d1117;strokeColor=#FFFFFF;" parent="1" vertex="1">
          <mxGeometry x="67" y="177" width="80" height="40" as="geometry" />
        </mxCell>
        <mxCell id="aia2x_jUWNvBXvAyQFXD-5" value="Full Name" style="ellipse;whiteSpace=wrap;html=1;align=center;labelBackgroundColor=none;fontFamily=Times New Roman;rounded=1;fontColor=#ffffff;fillColor=#0d1117;strokeColor=#FFFFFF;" parent="1" vertex="1">
          <mxGeometry x="84" y="233" width="70" height="40" as="geometry" />
        </mxCell>
        <mxCell id="aia2x_jUWNvBXvAyQFXD-6" value="Email" style="ellipse;whiteSpace=wrap;html=1;align=center;labelBackgroundColor=none;fontFamily=Times New Roman;rounded=1;fontColor=#ffffff;fillColor=#0d1117;strokeColor=#FFFFFF;" parent="1" vertex="1">
          <mxGeometry x="177" y="149.91" width="50" height="40" as="geometry" />
        </mxCell>
        <mxCell id="aia2x_jUWNvBXvAyQFXD-7" value="Password" style="ellipse;whiteSpace=wrap;html=1;align=center;labelBackgroundColor=none;fontFamily=Times New Roman;rounded=1;fontColor=#ffffff;fillColor=#0d1117;strokeColor=#FFFFFF;" parent="1" vertex="1">
          <mxGeometry x="107" y="123" width="70" height="40" as="geometry" />
        </mxCell>
        <mxCell id="aia2x_jUWNvBXvAyQFXD-8" value="DoB" style="ellipse;whiteSpace=wrap;html=1;align=center;labelBackgroundColor=none;fontFamily=Times New Roman;rounded=1;fontColor=#ffffff;fillColor=#0d1117;strokeColor=#FFFFFF;" parent="1" vertex="1">
          <mxGeometry x="313" y="177" width="50" height="40" as="geometry" />
        </mxCell>
        <mxCell id="aia2x_jUWNvBXvAyQFXD-9" value="Gender" style="ellipse;whiteSpace=wrap;html=1;align=center;labelBackgroundColor=none;fontFamily=Times New Roman;rounded=1;fontColor=#ffffff;fillColor=#0d1117;strokeColor=#FFFFFF;" parent="1" vertex="1">
          <mxGeometry x="128" y="280" width="60" height="40" as="geometry" />
        </mxCell>
        <mxCell id="aia2x_jUWNvBXvAyQFXD-10" value="Contact Number" style="ellipse;whiteSpace=wrap;html=1;align=center;labelBackgroundColor=none;fontFamily=Times New Roman;rounded=1;fontColor=#ffffff;fillColor=#0d1117;strokeColor=#ffffff;" parent="1" vertex="1">
          <mxGeometry x="177" y="94" width="110" height="40" as="geometry" />
        </mxCell>
        <mxCell id="aia2x_jUWNvBXvAyQFXD-11" value="" style="endArrow=none;html=1;rounded=1;exitX=1;exitY=1;exitDx=0;exitDy=0;entryX=0;entryY=0.25;entryDx=0;entryDy=0;labelBackgroundColor=none;fontColor=#ffffff;fontFamily=Times New Roman;strokeColor=#ffffff;" parent="1" source="aia2x_jUWNvBXvAyQFXD-3" target="aia2x_jUWNvBXvAyQFXD-1" edge="1">
          <mxGeometry relative="1" as="geometry">
            <mxPoint x="351" y="333" as="sourcePoint" />
            <mxPoint x="511" y="333" as="targetPoint" />
          </mxGeometry>
        </mxCell>
        <mxCell id="aia2x_jUWNvBXvAyQFXD-12" value="" style="endArrow=none;html=1;rounded=1;exitX=0.5;exitY=1;exitDx=0;exitDy=0;entryX=0.25;entryY=0;entryDx=0;entryDy=0;labelBackgroundColor=none;fontColor=#ffffff;fontFamily=Times New Roman;strokeColor=#ffffff;" parent="1" source="aia2x_jUWNvBXvAyQFXD-6" target="aia2x_jUWNvBXvAyQFXD-1" edge="1">
          <mxGeometry relative="1" as="geometry">
            <mxPoint x="161" y="193" as="sourcePoint" />
            <mxPoint x="181" y="223" as="targetPoint" />
          </mxGeometry>
        </mxCell>
        <mxCell id="aia2x_jUWNvBXvAyQFXD-13" value="" style="endArrow=none;html=1;rounded=1;exitX=0.5;exitY=1;exitDx=0;exitDy=0;entryX=0;entryY=0;entryDx=0;entryDy=0;labelBackgroundColor=none;fontColor=#ffffff;fontFamily=Times New Roman;strokeColor=#ffffff;" parent="1" source="aia2x_jUWNvBXvAyQFXD-7" target="aia2x_jUWNvBXvAyQFXD-1" edge="1">
          <mxGeometry relative="1" as="geometry">
            <mxPoint x="171" y="203" as="sourcePoint" />
            <mxPoint x="191" y="233" as="targetPoint" />
          </mxGeometry>
        </mxCell>
        <mxCell id="aia2x_jUWNvBXvAyQFXD-14" value="" style="endArrow=none;html=1;rounded=1;exitX=0.5;exitY=1;exitDx=0;exitDy=0;entryX=0.5;entryY=0;entryDx=0;entryDy=0;labelBackgroundColor=none;fontColor=#ffffff;fontFamily=Times New Roman;strokeColor=#ffffff;" parent="1" source="aia2x_jUWNvBXvAyQFXD-10" target="aia2x_jUWNvBXvAyQFXD-1" edge="1">
          <mxGeometry relative="1" as="geometry">
            <mxPoint x="181" y="213" as="sourcePoint" />
            <mxPoint x="201" y="243" as="targetPoint" />
          </mxGeometry>
        </mxCell>
        <mxCell id="aia2x_jUWNvBXvAyQFXD-15" value="" style="endArrow=none;html=1;rounded=1;exitX=1;exitY=0.5;exitDx=0;exitDy=0;entryX=0;entryY=0.75;entryDx=0;entryDy=0;labelBackgroundColor=none;fontColor=#ffffff;fontFamily=Times New Roman;strokeColor=#ffffff;" parent="1" source="aia2x_jUWNvBXvAyQFXD-5" target="aia2x_jUWNvBXvAyQFXD-1" edge="1">
          <mxGeometry relative="1" as="geometry">
            <mxPoint x="191" y="223" as="sourcePoint" />
            <mxPoint x="211" y="253" as="targetPoint" />
          </mxGeometry>
        </mxCell>
        <mxCell id="aia2x_jUWNvBXvAyQFXD-16" value="" style="endArrow=none;html=1;rounded=1;exitX=1;exitY=0;exitDx=0;exitDy=0;entryX=0.188;entryY=0.995;entryDx=0;entryDy=0;entryPerimeter=0;labelBackgroundColor=none;fontColor=#ffffff;fontFamily=Times New Roman;strokeColor=#ffffff;" parent="1" source="aia2x_jUWNvBXvAyQFXD-9" target="aia2x_jUWNvBXvAyQFXD-1" edge="1">
          <mxGeometry relative="1" as="geometry">
            <mxPoint x="201" y="233" as="sourcePoint" />
            <mxPoint x="221" y="263" as="targetPoint" />
          </mxGeometry>
        </mxCell>
        <mxCell id="aia2x_jUWNvBXvAyQFXD-17" value="" style="endArrow=none;html=1;rounded=1;exitX=0;exitY=0.5;exitDx=0;exitDy=0;entryX=0.993;entryY=0.122;entryDx=0;entryDy=0;labelBackgroundColor=none;fontColor=#ffffff;fontFamily=Times New Roman;strokeColor=#ffffff;entryPerimeter=0;" parent="1" source="aia2x_jUWNvBXvAyQFXD-8" target="aia2x_jUWNvBXvAyQFXD-1" edge="1">
          <mxGeometry relative="1" as="geometry">
            <mxPoint x="211" y="243" as="sourcePoint" />
            <mxPoint x="231" y="273" as="targetPoint" />
          </mxGeometry>
        </mxCell>
        <mxCell id="aia2x_jUWNvBXvAyQFXD-18" value="&lt;font style=&quot;font-size: 14px;&quot;&gt;&lt;b&gt;Course&lt;/b&gt;&lt;/font&gt;" style="whiteSpace=wrap;html=1;align=center;labelBackgroundColor=none;fontFamily=Times New Roman;rounded=1;fontColor=#ffffff;fillColor=#0d1117;strokeColor=#FFFFFF;" parent="1" vertex="1">
          <mxGeometry x="714" y="189.91" width="80" height="40" as="geometry" />
        </mxCell>
        <mxCell id="aia2x_jUWNvBXvAyQFXD-19" value="Course ID" style="ellipse;whiteSpace=wrap;html=1;align=center;fontStyle=4;labelBackgroundColor=none;fontFamily=Times New Roman;rounded=1;fontColor=#ffffff;fillColor=#0d1117;strokeColor=#FFFFFF;" parent="1" vertex="1">
          <mxGeometry x="664" y="129.91" width="80" height="40" as="geometry" />
        </mxCell>
        <mxCell id="aia2x_jUWNvBXvAyQFXD-20" value="" style="endArrow=none;html=1;rounded=1;exitX=0.5;exitY=1;exitDx=0;exitDy=0;entryX=0;entryY=0;entryDx=0;entryDy=0;labelBackgroundColor=none;fontColor=#ffffff;fontFamily=Times New Roman;strokeColor=#ffffff;" parent="1" source="aia2x_jUWNvBXvAyQFXD-19" target="aia2x_jUWNvBXvAyQFXD-18" edge="1">
          <mxGeometry relative="1" as="geometry">
            <mxPoint x="284" y="179.91" as="sourcePoint" />
            <mxPoint x="304" y="209.91" as="targetPoint" />
          </mxGeometry>
        </mxCell>
        <mxCell id="aia2x_jUWNvBXvAyQFXD-21" value="Title" style="ellipse;whiteSpace=wrap;html=1;align=center;labelBackgroundColor=none;fontFamily=Times New Roman;rounded=1;fontColor=#ffffff;fillColor=#0d1117;strokeColor=#FFFFFF;" parent="1" vertex="1">
          <mxGeometry x="754" y="119.91" width="50" height="40" as="geometry" />
        </mxCell>
        <mxCell id="aia2x_jUWNvBXvAyQFXD-22" value="Credit Hours" style="ellipse;whiteSpace=wrap;html=1;align=center;labelBackgroundColor=none;fontFamily=Times New Roman;rounded=1;fontColor=#ffffff;fillColor=#0d1117;strokeColor=#FFFFFF;" parent="1" vertex="1">
          <mxGeometry x="804" y="149.91" width="90" height="40" as="geometry" />
        </mxCell>
        <mxCell id="aia2x_jUWNvBXvAyQFXD-23" value="" style="endArrow=none;html=1;rounded=1;exitX=0.5;exitY=1;exitDx=0;exitDy=0;entryX=0.75;entryY=0;entryDx=0;entryDy=0;labelBackgroundColor=none;fontColor=#ffffff;fontFamily=Times New Roman;strokeColor=#ffffff;" parent="1" source="aia2x_jUWNvBXvAyQFXD-21" target="aia2x_jUWNvBXvAyQFXD-18" edge="1">
          <mxGeometry relative="1" as="geometry">
            <mxPoint x="430" y="163.91" as="sourcePoint" />
            <mxPoint x="404" y="199.91" as="targetPoint" />
          </mxGeometry>
        </mxCell>
        <mxCell id="aia2x_jUWNvBXvAyQFXD-24" value="" style="endArrow=none;html=1;rounded=1;exitX=0;exitY=1;exitDx=0;exitDy=0;entryX=1;entryY=0.5;entryDx=0;entryDy=0;labelBackgroundColor=none;fontColor=#ffffff;fontFamily=Times New Roman;strokeColor=#ffffff;" parent="1" source="aia2x_jUWNvBXvAyQFXD-22" target="aia2x_jUWNvBXvAyQFXD-18" edge="1">
          <mxGeometry relative="1" as="geometry">
            <mxPoint x="440" y="173.91" as="sourcePoint" />
            <mxPoint x="414" y="209.91" as="targetPoint" />
          </mxGeometry>
        </mxCell>
        <mxCell id="aia2x_jUWNvBXvAyQFXD-26" value="&lt;font style=&quot;font-size: 14px;&quot;&gt;&lt;b&gt;Grade&lt;/b&gt;&lt;/font&gt;" style="whiteSpace=wrap;html=1;align=center;labelBackgroundColor=none;fontFamily=Times New Roman;rounded=1;fontColor=#ffffff;fillColor=#0d1117;strokeColor=#FFFFFF;" parent="1" vertex="1">
          <mxGeometry x="900" y="313" width="100" height="40" as="geometry" />
        </mxCell>
        <mxCell id="aia2x_jUWNvBXvAyQFXD-27" value="Grade" style="ellipse;whiteSpace=wrap;html=1;align=center;fontStyle=4;labelBackgroundColor=none;fontFamily=Times New Roman;rounded=1;fontColor=#ffffff;fillColor=#0d1117;strokeColor=#FFFFFF;" parent="1" vertex="1">
          <mxGeometry x="890" y="253" width="50" height="40" as="geometry" />
        </mxCell>
        <mxCell id="aia2x_jUWNvBXvAyQFXD-28" value="" style="endArrow=none;html=1;rounded=1;exitX=0.5;exitY=1;exitDx=0;exitDy=0;entryX=0.25;entryY=0;entryDx=0;entryDy=0;labelBackgroundColor=none;fontColor=#ffffff;fontFamily=Times New Roman;strokeColor=#ffffff;" parent="1" source="aia2x_jUWNvBXvAyQFXD-27" target="aia2x_jUWNvBXvAyQFXD-26" edge="1">
          <mxGeometry relative="1" as="geometry">
            <mxPoint x="890" y="63" as="sourcePoint" />
            <mxPoint x="910" y="93" as="targetPoint" />
          </mxGeometry>
        </mxCell>
        <mxCell id="aia2x_jUWNvBXvAyQFXD-30" value="" style="endArrow=none;html=1;rounded=1;exitX=0.5;exitY=1;exitDx=0;exitDy=0;entryX=0.75;entryY=0;entryDx=0;entryDy=0;labelBackgroundColor=none;fontColor=#ffffff;fontFamily=Times New Roman;strokeColor=#ffffff;" parent="1" source="aia2x_jUWNvBXvAyQFXD-33" target="aia2x_jUWNvBXvAyQFXD-26" edge="1">
          <mxGeometry relative="1" as="geometry">
            <mxPoint x="985" y="293" as="sourcePoint" />
            <mxPoint x="995" y="303" as="targetPoint" />
          </mxGeometry>
        </mxCell>
        <mxCell id="aia2x_jUWNvBXvAyQFXD-33" value="GPA" style="ellipse;whiteSpace=wrap;html=1;align=center;labelBackgroundColor=none;fontFamily=Times New Roman;rounded=1;fontColor=#ffffff;fillColor=#0d1117;strokeColor=#FFFFFF;" parent="1" vertex="1">
          <mxGeometry x="960" y="253" width="50" height="40" as="geometry" />
        </mxCell>
        <mxCell id="aia2x_jUWNvBXvAyQFXD-34" value="&lt;font style=&quot;font-size: 14px;&quot;&gt;&lt;b&gt;Department&lt;/b&gt;&lt;/font&gt;" style="whiteSpace=wrap;html=1;align=center;labelBackgroundColor=none;fontFamily=Times New Roman;rounded=1;fontColor=#ffffff;fillColor=#0d1117;strokeColor=#FFFFFF;" parent="1" vertex="1">
          <mxGeometry x="280.75" y="674.2" width="110" height="40" as="geometry" />
        </mxCell>
        <mxCell id="aia2x_jUWNvBXvAyQFXD-35" value="Department ID" style="ellipse;whiteSpace=wrap;html=1;align=center;fontStyle=4;labelBackgroundColor=none;fontFamily=Times New Roman;rounded=1;fontColor=#ffffff;fillColor=#0d1117;strokeColor=#FFFFFF;" parent="1" vertex="1">
          <mxGeometry x="230.75" y="744.2" width="105" height="40" as="geometry" />
        </mxCell>
        <mxCell id="aia2x_jUWNvBXvAyQFXD-36" value="" style="endArrow=none;html=1;rounded=1;exitX=0.5;exitY=0;exitDx=0;exitDy=0;entryX=0.25;entryY=1;entryDx=0;entryDy=0;labelBackgroundColor=none;fontColor=#ffffff;fontFamily=Times New Roman;strokeColor=#FFFFFF;" parent="1" source="aia2x_jUWNvBXvAyQFXD-35" target="aia2x_jUWNvBXvAyQFXD-34" edge="1">
          <mxGeometry relative="1" as="geometry">
            <mxPoint x="-9.25" y="424.2" as="sourcePoint" />
            <mxPoint x="10.75" y="454.2" as="targetPoint" />
          </mxGeometry>
        </mxCell>
        <mxCell id="aia2x_jUWNvBXvAyQFXD-37" value="Department Name" style="ellipse;whiteSpace=wrap;html=1;align=center;labelBackgroundColor=none;fontFamily=Times New Roman;rounded=1;fontColor=#ffffff;fillColor=#0d1117;strokeColor=#FFFFFF;" parent="1" vertex="1">
          <mxGeometry x="350.75" y="754.2" width="125" height="40" as="geometry" />
        </mxCell>
        <mxCell id="aia2x_jUWNvBXvAyQFXD-38" value="" style="endArrow=none;html=1;rounded=1;entryX=0.75;entryY=1;entryDx=0;entryDy=0;exitX=0.5;exitY=0;exitDx=0;exitDy=0;labelBackgroundColor=none;fontColor=#ffffff;fontFamily=Times New Roman;strokeColor=#FFFFFF;" parent="1" source="aia2x_jUWNvBXvAyQFXD-37" target="aia2x_jUWNvBXvAyQFXD-34" edge="1">
          <mxGeometry relative="1" as="geometry">
            <mxPoint x="400.75" y="754.2" as="sourcePoint" />
            <mxPoint x="480.75" y="524.2" as="targetPoint" />
          </mxGeometry>
        </mxCell>
        <mxCell id="aia2x_jUWNvBXvAyQFXD-39" value="&lt;font style=&quot;font-size: 14px;&quot;&gt;&lt;b&gt;Lecturer&lt;/b&gt;&lt;/font&gt;" style="whiteSpace=wrap;html=1;align=center;labelBackgroundColor=none;fontFamily=Times New Roman;rounded=1;fontColor=#ffffff;fillColor=#0d1117;strokeColor=#FFFFFF;" parent="1" vertex="1">
          <mxGeometry x="840.5" y="533" width="110" height="40" as="geometry" />
        </mxCell>
        <mxCell id="aia2x_jUWNvBXvAyQFXD-40" value="Lecturer ID" style="ellipse;whiteSpace=wrap;html=1;align=center;fontStyle=4;labelBackgroundColor=none;fontFamily=Times New Roman;rounded=1;fontColor=#ffffff;fillColor=#0d1117;strokeColor=#FFFFFF;" parent="1" vertex="1">
          <mxGeometry x="833" y="603" width="77.5" height="40" as="geometry" />
        </mxCell>
        <mxCell id="aia2x_jUWNvBXvAyQFXD-41" value="" style="endArrow=none;html=1;rounded=1;exitX=0.5;exitY=0;exitDx=0;exitDy=0;entryX=0.25;entryY=1;entryDx=0;entryDy=0;labelBackgroundColor=none;fontColor=#ffffff;fontFamily=Times New Roman;strokeColor=#FFFFFF;" parent="1" source="aia2x_jUWNvBXvAyQFXD-40" target="aia2x_jUWNvBXvAyQFXD-39" edge="1">
          <mxGeometry relative="1" as="geometry">
            <mxPoint x="550.5" y="283" as="sourcePoint" />
            <mxPoint x="570.5" y="313" as="targetPoint" />
          </mxGeometry>
        </mxCell>
        <mxCell id="aia2x_jUWNvBXvAyQFXD-42" value="Full Name" style="ellipse;whiteSpace=wrap;html=1;align=center;labelBackgroundColor=none;fontFamily=Times New Roman;rounded=1;fontColor=#ffffff;fillColor=#0d1117;strokeColor=#FFFFFF;" parent="1" vertex="1">
          <mxGeometry x="931" y="603" width="67.5" height="40" as="geometry" />
        </mxCell>
        <mxCell id="aia2x_jUWNvBXvAyQFXD-43" value="" style="endArrow=none;html=1;rounded=1;entryX=0.75;entryY=1;entryDx=0;entryDy=0;exitX=0.5;exitY=0;exitDx=0;exitDy=0;labelBackgroundColor=none;fontColor=#ffffff;fontFamily=Times New Roman;strokeColor=#FFFFFF;" parent="1" source="aia2x_jUWNvBXvAyQFXD-42" target="aia2x_jUWNvBXvAyQFXD-39" edge="1">
          <mxGeometry relative="1" as="geometry">
            <mxPoint x="960.5" y="613" as="sourcePoint" />
            <mxPoint x="1040.5" y="383" as="targetPoint" />
          </mxGeometry>
        </mxCell>
        <mxCell id="aia2x_jUWNvBXvAyQFXD-44" value="Salary" style="ellipse;whiteSpace=wrap;html=1;align=center;labelBackgroundColor=none;fontFamily=Times New Roman;rounded=1;fontColor=#ffffff;fillColor=#0d1117;strokeColor=#FFFFFF;" parent="1" vertex="1">
          <mxGeometry x="969" y="513" width="50" height="40" as="geometry" />
        </mxCell>
        <mxCell id="aia2x_jUWNvBXvAyQFXD-45" value="Contact Email" style="ellipse;whiteSpace=wrap;html=1;align=center;labelBackgroundColor=none;fontFamily=Times New Roman;rounded=1;fontColor=#ffffff;fillColor=#0d1117;strokeColor=#FFFFFF;" parent="1" vertex="1">
          <mxGeometry x="890" y="458" width="100" height="40" as="geometry" />
        </mxCell>
        <mxCell id="aia2x_jUWNvBXvAyQFXD-46" value="Office Room" style="ellipse;whiteSpace=wrap;html=1;align=center;labelBackgroundColor=none;fontFamily=Times New Roman;rounded=1;fontColor=#ffffff;fillColor=#0d1117;strokeColor=#FFFFFF;" parent="1" vertex="1">
          <mxGeometry x="768" y="486" width="80" height="40" as="geometry" />
        </mxCell>
        <mxCell id="aia2x_jUWNvBXvAyQFXD-48" value="" style="endArrow=none;html=1;rounded=1;exitX=0.75;exitY=0;exitDx=0;exitDy=0;entryX=0.5;entryY=1;entryDx=0;entryDy=0;labelBackgroundColor=none;fontColor=#ffffff;fontFamily=Times New Roman;strokeColor=#FFFFFF;" parent="1" source="aia2x_jUWNvBXvAyQFXD-39" target="aia2x_jUWNvBXvAyQFXD-45" edge="1">
          <mxGeometry relative="1" as="geometry">
            <mxPoint x="863" y="623" as="sourcePoint" />
            <mxPoint x="888" y="593" as="targetPoint" />
          </mxGeometry>
        </mxCell>
        <mxCell id="aia2x_jUWNvBXvAyQFXD-49" value="" style="endArrow=none;html=1;rounded=1;exitX=0;exitY=0.5;exitDx=0;exitDy=0;entryX=1;entryY=0.5;entryDx=0;entryDy=0;labelBackgroundColor=none;fontColor=#ffffff;fontFamily=Times New Roman;strokeColor=#FFFFFF;" parent="1" source="aia2x_jUWNvBXvAyQFXD-44" target="aia2x_jUWNvBXvAyQFXD-39" edge="1">
          <mxGeometry relative="1" as="geometry">
            <mxPoint x="873" y="633" as="sourcePoint" />
            <mxPoint x="898" y="603" as="targetPoint" />
          </mxGeometry>
        </mxCell>
        <mxCell id="aia2x_jUWNvBXvAyQFXD-50" value="&lt;i&gt;&lt;font style=&quot;font-size: 14px;&quot;&gt;takes&lt;/font&gt;&lt;/i&gt;" style="shape=rhombus;perimeter=rhombusPerimeter;whiteSpace=wrap;html=1;align=center;labelBackgroundColor=none;fontFamily=Times New Roman;rounded=1;fontColor=#ffffff;fillColor=#0d1117;strokeColor=#FFFFFF;" parent="1" vertex="1">
          <mxGeometry x="480.5" y="322" width="70" height="60" as="geometry" />
        </mxCell>
        <mxCell id="aia2x_jUWNvBXvAyQFXD-52" value="" style="endArrow=none;html=1;rounded=1;entryX=0.75;entryY=1;entryDx=0;entryDy=0;exitX=0;exitY=0.5;exitDx=0;exitDy=0;labelBackgroundColor=none;fontColor=#ffffff;fontFamily=Times New Roman;strokeColor=#ffffff;" parent="1" source="aia2x_jUWNvBXvAyQFXD-50" target="aia2x_jUWNvBXvAyQFXD-1" edge="1">
          <mxGeometry relative="1" as="geometry">
            <mxPoint x="371" y="419" as="sourcePoint" />
            <mxPoint x="531" y="419" as="targetPoint" />
          </mxGeometry>
        </mxCell>
        <mxCell id="aia2x_jUWNvBXvAyQFXD-53" value="N" style="resizable=0;html=1;whiteSpace=wrap;align=right;verticalAlign=bottom;labelBackgroundColor=none;fontFamily=Times New Roman;rounded=1;fontColor=#ffffff;" parent="aia2x_jUWNvBXvAyQFXD-52" connectable="0" vertex="1">
          <mxGeometry x="1" relative="1" as="geometry">
            <mxPoint x="10" y="20" as="offset" />
          </mxGeometry>
        </mxCell>
        <mxCell id="aia2x_jUWNvBXvAyQFXD-54" value="" style="endArrow=none;html=1;rounded=1;entryX=0;entryY=1;entryDx=0;entryDy=0;exitX=1;exitY=0.5;exitDx=0;exitDy=0;labelBackgroundColor=none;fontColor=#ffffff;fontFamily=Times New Roman;strokeColor=#ffffff;" parent="1" source="aia2x_jUWNvBXvAyQFXD-50" target="aia2x_jUWNvBXvAyQFXD-18" edge="1">
          <mxGeometry relative="1" as="geometry">
            <mxPoint x="431" y="339" as="sourcePoint" />
            <mxPoint x="276" y="289" as="targetPoint" />
          </mxGeometry>
        </mxCell>
        <mxCell id="aia2x_jUWNvBXvAyQFXD-55" value="N" style="resizable=0;html=1;whiteSpace=wrap;align=right;verticalAlign=bottom;labelBackgroundColor=none;fontFamily=Times New Roman;rounded=1;fontColor=#ffffff;" parent="aia2x_jUWNvBXvAyQFXD-54" connectable="0" vertex="1">
          <mxGeometry x="1" relative="1" as="geometry">
            <mxPoint x="10" y="20" as="offset" />
          </mxGeometry>
        </mxCell>
        <mxCell id="aia2x_jUWNvBXvAyQFXD-56" value="Term" style="ellipse;whiteSpace=wrap;html=1;align=center;labelBackgroundColor=none;fontFamily=Times New Roman;rounded=1;fontColor=#ffffff;fillColor=#0d1117;strokeColor=#FFFFFF;" parent="1" vertex="1">
          <mxGeometry x="440.5" y="278" width="40" height="40" as="geometry" />
        </mxCell>
        <mxCell id="aia2x_jUWNvBXvAyQFXD-57" value="" style="endArrow=none;html=1;rounded=1;exitX=1;exitY=1;exitDx=0;exitDy=0;entryX=0;entryY=0;entryDx=0;entryDy=0;labelBackgroundColor=none;fontColor=#ffffff;fontFamily=Times New Roman;strokeColor=#ffffff;" parent="1" source="aia2x_jUWNvBXvAyQFXD-56" target="aia2x_jUWNvBXvAyQFXD-50" edge="1">
          <mxGeometry relative="1" as="geometry">
            <mxPoint x="366.5" y="357" as="sourcePoint" />
            <mxPoint x="440.5" y="362" as="targetPoint" />
          </mxGeometry>
        </mxCell>
        <mxCell id="aia2x_jUWNvBXvAyQFXD-58" value="State" style="ellipse;whiteSpace=wrap;html=1;align=center;labelBackgroundColor=none;fontFamily=Times New Roman;rounded=1;fontColor=#ffffff;fillColor=#0d1117;strokeColor=#FFFFFF;" parent="1" vertex="1">
          <mxGeometry x="540.75" y="282" width="40" height="40" as="geometry" />
        </mxCell>
        <mxCell id="aia2x_jUWNvBXvAyQFXD-59" value="" style="endArrow=none;html=1;rounded=1;exitX=0.5;exitY=1;exitDx=0;exitDy=0;labelBackgroundColor=none;fontColor=#ffffff;fontFamily=Times New Roman;strokeColor=#ffffff;entryX=1;entryY=0;entryDx=0;entryDy=0;" parent="1" source="aia2x_jUWNvBXvAyQFXD-58" target="aia2x_jUWNvBXvAyQFXD-50" edge="1">
          <mxGeometry relative="1" as="geometry">
            <mxPoint x="350.5" y="312" as="sourcePoint" />
            <mxPoint x="533.5" y="335" as="targetPoint" />
          </mxGeometry>
        </mxCell>
        <mxCell id="aia2x_jUWNvBXvAyQFXD-62" value="&lt;i style=&quot;border-color: var(--border-color);&quot;&gt;&lt;font style=&quot;border-color: var(--border-color); font-size: 14px;&quot;&gt;belongs to&lt;/font&gt;&lt;/i&gt;" style="shape=rhombus;perimeter=rhombusPerimeter;whiteSpace=wrap;html=1;align=center;labelBackgroundColor=none;fontFamily=Times New Roman;rounded=1;fontColor=#ffffff;fillColor=#0d1117;strokeColor=#FFFFFF;" parent="1" vertex="1">
          <mxGeometry x="608" y="530" width="87.5" height="60" as="geometry" />
        </mxCell>
        <mxCell id="aia2x_jUWNvBXvAyQFXD-65" value="" style="endArrow=none;html=1;rounded=1;entryX=0.75;entryY=0;entryDx=0;entryDy=0;exitX=0;exitY=1;exitDx=0;exitDy=0;labelBackgroundColor=none;fontColor=#ffffff;fontFamily=Times New Roman;strokeColor=#FFFFFF;" parent="1" source="aia2x_jUWNvBXvAyQFXD-62" target="aia2x_jUWNvBXvAyQFXD-34" edge="1">
          <mxGeometry relative="1" as="geometry">
            <mxPoint x="371" y="449" as="sourcePoint" />
            <mxPoint x="531" y="449" as="targetPoint" />
          </mxGeometry>
        </mxCell>
        <mxCell id="aia2x_jUWNvBXvAyQFXD-66" value="1" style="resizable=0;html=1;whiteSpace=wrap;align=right;verticalAlign=bottom;labelBackgroundColor=none;fontFamily=Times New Roman;rounded=1;fontColor=#ffffff;" parent="aia2x_jUWNvBXvAyQFXD-65" connectable="0" vertex="1">
          <mxGeometry x="1" relative="1" as="geometry">
            <mxPoint x="1" as="offset" />
          </mxGeometry>
        </mxCell>
        <mxCell id="aia2x_jUWNvBXvAyQFXD-67" value="" style="shape=link;html=1;rounded=1;entryX=0.5;entryY=1;entryDx=0;entryDy=0;exitX=1;exitY=0;exitDx=0;exitDy=0;labelBackgroundColor=none;fontColor=#ffffff;fontFamily=Times New Roman;strokeColor=#ffffff;" parent="1" source="aia2x_jUWNvBXvAyQFXD-62" target="aia2x_jUWNvBXvAyQFXD-18" edge="1">
          <mxGeometry relative="1" as="geometry">
            <mxPoint x="405.87" y="453" as="sourcePoint" />
            <mxPoint x="565.87" y="453" as="targetPoint" />
          </mxGeometry>
        </mxCell>
        <mxCell id="aia2x_jUWNvBXvAyQFXD-68" value="N" style="resizable=0;html=1;whiteSpace=wrap;align=right;verticalAlign=bottom;labelBackgroundColor=none;fontFamily=Times New Roman;rounded=1;fontColor=#ffffff;" parent="aia2x_jUWNvBXvAyQFXD-67" connectable="0" vertex="1">
          <mxGeometry x="1" relative="1" as="geometry">
            <mxPoint x="14" y="19" as="offset" />
          </mxGeometry>
        </mxCell>
        <mxCell id="aia2x_jUWNvBXvAyQFXD-69" value="&lt;i&gt;&lt;font style=&quot;font-size: 14px;&quot;&gt;works at&lt;/font&gt;&lt;/i&gt;" style="shape=rhombus;perimeter=rhombusPerimeter;whiteSpace=wrap;html=1;align=center;labelBackgroundColor=none;fontFamily=Times New Roman;rounded=1;fontColor=#ffffff;fillColor=#0d1117;strokeColor=#FFFFFF;" parent="1" vertex="1">
          <mxGeometry x="634" y="677" width="80" height="60" as="geometry" />
        </mxCell>
        <mxCell id="aia2x_jUWNvBXvAyQFXD-70" value="" style="shape=link;html=1;rounded=1;entryX=0;entryY=1;entryDx=0;entryDy=0;exitX=1;exitY=0.5;exitDx=0;exitDy=0;labelBackgroundColor=none;fontColor=#ffffff;fontFamily=Times New Roman;strokeColor=#FFFFFF;" parent="1" source="aia2x_jUWNvBXvAyQFXD-69" target="aia2x_jUWNvBXvAyQFXD-39" edge="1">
          <mxGeometry relative="1" as="geometry">
            <mxPoint x="491.5" y="465.71" as="sourcePoint" />
            <mxPoint x="467.5" y="390.71" as="targetPoint" />
          </mxGeometry>
        </mxCell>
        <mxCell id="aia2x_jUWNvBXvAyQFXD-71" value="N" style="resizable=0;html=1;whiteSpace=wrap;align=right;verticalAlign=bottom;labelBackgroundColor=none;fontFamily=Times New Roman;rounded=1;fontColor=#ffffff;" parent="aia2x_jUWNvBXvAyQFXD-70" connectable="0" vertex="1">
          <mxGeometry x="1" relative="1" as="geometry">
            <mxPoint as="offset" />
          </mxGeometry>
        </mxCell>
        <mxCell id="aia2x_jUWNvBXvAyQFXD-72" value="" style="endArrow=none;html=1;rounded=1;exitX=0;exitY=0.5;exitDx=0;exitDy=0;labelBackgroundColor=none;fontColor=#ffffff;fontFamily=Times New Roman;strokeColor=#FFFFFF;entryX=1;entryY=0.5;entryDx=0;entryDy=0;" parent="1" source="aia2x_jUWNvBXvAyQFXD-69" target="aia2x_jUWNvBXvAyQFXD-34" edge="1">
          <mxGeometry relative="1" as="geometry">
            <mxPoint x="571.25" y="645.83" as="sourcePoint" />
            <mxPoint x="808.25" y="548.82" as="targetPoint" />
          </mxGeometry>
        </mxCell>
        <mxCell id="aia2x_jUWNvBXvAyQFXD-73" value="1" style="resizable=0;html=1;whiteSpace=wrap;align=right;verticalAlign=bottom;labelBackgroundColor=none;fontFamily=Times New Roman;rounded=1;fontColor=#ffffff;" parent="aia2x_jUWNvBXvAyQFXD-72" connectable="0" vertex="1">
          <mxGeometry x="1" relative="1" as="geometry">
            <mxPoint x="10" y="20" as="offset" />
          </mxGeometry>
        </mxCell>
        <mxCell id="LiaLhbnYLunfztO8MbrB-1" value="&lt;span style=&quot;font-size: 14px;&quot;&gt;&lt;i&gt;enrolls&lt;/i&gt;&lt;/span&gt;" style="shape=rhombus;perimeter=rhombusPerimeter;whiteSpace=wrap;html=1;align=center;labelBackgroundColor=none;fontFamily=Times New Roman;rounded=1;fontColor=#ffffff;fillColor=#0d1117;strokeColor=#FFFFFF;" parent="1" vertex="1">
          <mxGeometry x="136" y="547" width="70" height="60" as="geometry" />
        </mxCell>
        <mxCell id="LiaLhbnYLunfztO8MbrB-2" value="" style="shape=link;html=1;rounded=1;entryX=0.5;entryY=1;entryDx=0;entryDy=0;exitX=0.5;exitY=0;exitDx=0;exitDy=0;labelBackgroundColor=none;fontColor=#ffffff;fontFamily=Times New Roman;strokeColor=#ffffff;" parent="1" source="LiaLhbnYLunfztO8MbrB-1" target="aia2x_jUWNvBXvAyQFXD-1" edge="1">
          <mxGeometry relative="1" as="geometry">
            <mxPoint x="728" y="368" as="sourcePoint" />
            <mxPoint x="649" y="303" as="targetPoint" />
          </mxGeometry>
        </mxCell>
        <mxCell id="LiaLhbnYLunfztO8MbrB-3" value="N" style="resizable=0;html=1;whiteSpace=wrap;align=right;verticalAlign=bottom;labelBackgroundColor=none;fontFamily=Times New Roman;rounded=1;fontColor=#ffffff;" parent="LiaLhbnYLunfztO8MbrB-2" connectable="0" vertex="1">
          <mxGeometry x="1" relative="1" as="geometry">
            <mxPoint x="-4" y="18" as="offset" />
          </mxGeometry>
        </mxCell>
        <mxCell id="LiaLhbnYLunfztO8MbrB-4" value="" style="endArrow=none;html=1;rounded=1;entryX=0;entryY=0.25;entryDx=0;entryDy=0;exitX=1;exitY=1;exitDx=0;exitDy=0;labelBackgroundColor=none;fontColor=#ffffff;fontFamily=Times New Roman;strokeColor=#FFFFFF;" parent="1" source="LiaLhbnYLunfztO8MbrB-1" target="aia2x_jUWNvBXvAyQFXD-34" edge="1">
          <mxGeometry relative="1" as="geometry">
            <mxPoint x="698" y="459" as="sourcePoint" />
            <mxPoint x="662" y="662" as="targetPoint" />
          </mxGeometry>
        </mxCell>
        <mxCell id="LiaLhbnYLunfztO8MbrB-5" value="1" style="resizable=0;html=1;whiteSpace=wrap;align=right;verticalAlign=bottom;labelBackgroundColor=none;fontFamily=Times New Roman;rounded=1;fontColor=#ffffff;" parent="LiaLhbnYLunfztO8MbrB-4" connectable="0" vertex="1">
          <mxGeometry x="1" relative="1" as="geometry">
            <mxPoint x="1" y="19" as="offset" />
          </mxGeometry>
        </mxCell>
        <mxCell id="LiaLhbnYLunfztO8MbrB-9" value="&lt;i&gt;&lt;font style=&quot;font-size: 14px;&quot;&gt;teaches&lt;/font&gt;&lt;/i&gt;" style="shape=rhombus;perimeter=rhombusPerimeter;whiteSpace=wrap;html=1;align=center;labelBackgroundColor=none;fontFamily=Times New Roman;rounded=1;fontColor=#ffffff;fillColor=#0d1117;strokeColor=#FFFFFF;" parent="1" vertex="1">
          <mxGeometry x="770" y="371" width="80" height="60" as="geometry" />
        </mxCell>
        <mxCell id="LiaLhbnYLunfztO8MbrB-17" value="" style="endArrow=none;html=1;rounded=1;exitX=0;exitY=0.25;exitDx=0;exitDy=0;entryX=0.5;entryY=1;entryDx=0;entryDy=0;labelBackgroundColor=none;fontColor=#ffffff;fontFamily=Times New Roman;strokeColor=#FFFFFF;" parent="1" source="aia2x_jUWNvBXvAyQFXD-39" target="aia2x_jUWNvBXvAyQFXD-46" edge="1">
          <mxGeometry relative="1" as="geometry">
            <mxPoint x="933" y="542.99" as="sourcePoint" />
            <mxPoint x="950" y="507.99" as="targetPoint" />
          </mxGeometry>
        </mxCell>
        <mxCell id="LiaLhbnYLunfztO8MbrB-23" value="Grade" style="ellipse;whiteSpace=wrap;html=1;align=center;labelBackgroundColor=none;fontFamily=Times New Roman;rounded=1;fontColor=#ffffff;fillColor=#0d1117;strokeColor=#FFFFFF;" parent="1" vertex="1">
          <mxGeometry x="546" y="378" width="40" height="40" as="geometry" />
        </mxCell>
        <mxCell id="LiaLhbnYLunfztO8MbrB-24" value="" style="endArrow=none;html=1;rounded=1;exitX=0;exitY=0;exitDx=0;exitDy=0;labelBackgroundColor=none;fontColor=#ffffff;fontFamily=Times New Roman;strokeColor=#ffffff;entryX=1;entryY=1;entryDx=0;entryDy=0;" parent="1" source="LiaLhbnYLunfztO8MbrB-23" target="aia2x_jUWNvBXvAyQFXD-50" edge="1">
          <mxGeometry relative="1" as="geometry">
            <mxPoint x="549" y="325" as="sourcePoint" />
            <mxPoint x="543" y="347" as="targetPoint" />
          </mxGeometry>
        </mxCell>
        <mxCell id="LiaLhbnYLunfztO8MbrB-25" value="" style="shape=link;html=1;rounded=1;entryX=0.75;entryY=1;entryDx=0;entryDy=0;exitX=0.5;exitY=0;exitDx=0;exitDy=0;labelBackgroundColor=none;fontColor=#ffffff;fontFamily=Times New Roman;strokeColor=#ffffff;" parent="1" source="LiaLhbnYLunfztO8MbrB-9" target="aia2x_jUWNvBXvAyQFXD-18" edge="1">
          <mxGeometry relative="1" as="geometry">
            <mxPoint x="662" y="473" as="sourcePoint" />
            <mxPoint x="764" y="240" as="targetPoint" />
          </mxGeometry>
        </mxCell>
        <mxCell id="LiaLhbnYLunfztO8MbrB-26" value="N" style="resizable=0;html=1;whiteSpace=wrap;align=right;verticalAlign=bottom;labelBackgroundColor=none;fontFamily=Times New Roman;rounded=1;fontColor=#ffffff;" parent="LiaLhbnYLunfztO8MbrB-25" connectable="0" vertex="1">
          <mxGeometry x="1" relative="1" as="geometry">
            <mxPoint x="20" y="20" as="offset" />
          </mxGeometry>
        </mxCell>
        <mxCell id="LiaLhbnYLunfztO8MbrB-27" value="" style="endArrow=none;html=1;rounded=1;entryX=0.5;entryY=0;entryDx=0;entryDy=0;exitX=1;exitY=1;exitDx=0;exitDy=0;labelBackgroundColor=none;fontColor=#ffffff;fontFamily=Times New Roman;strokeColor=#FFFFFF;" parent="1" source="LiaLhbnYLunfztO8MbrB-9" target="aia2x_jUWNvBXvAyQFXD-39" edge="1">
          <mxGeometry relative="1" as="geometry">
            <mxPoint x="618" y="503" as="sourcePoint" />
            <mxPoint x="446" y="623" as="targetPoint" />
          </mxGeometry>
        </mxCell>
        <mxCell id="LiaLhbnYLunfztO8MbrB-28" value="1" style="resizable=0;html=1;whiteSpace=wrap;align=right;verticalAlign=bottom;labelBackgroundColor=none;fontFamily=Times New Roman;rounded=1;fontColor=#ffffff;" parent="LiaLhbnYLunfztO8MbrB-27" connectable="0" vertex="1">
          <mxGeometry x="1" relative="1" as="geometry">
            <mxPoint x="8" as="offset" />
          </mxGeometry>
        </mxCell>
        <mxCell id="LiaLhbnYLunfztO8MbrB-29" value="Personal Photo" style="ellipse;whiteSpace=wrap;html=1;align=center;labelBackgroundColor=none;fontFamily=Times New Roman;rounded=1;fontColor=#ffffff;fillColor=#0d1117;strokeColor=#ffffff;" parent="1" vertex="1">
          <mxGeometry x="243.75" y="132" width="110" height="40" as="geometry" />
        </mxCell>
        <mxCell id="LiaLhbnYLunfztO8MbrB-30" value="" style="endArrow=none;html=1;rounded=1;exitX=0.5;exitY=1;exitDx=0;exitDy=0;entryX=0.75;entryY=0;entryDx=0;entryDy=0;labelBackgroundColor=none;fontColor=#ffffff;fontFamily=Times New Roman;strokeColor=#ffffff;" parent="1" source="LiaLhbnYLunfztO8MbrB-29" target="aia2x_jUWNvBXvAyQFXD-1" edge="1">
          <mxGeometry relative="1" as="geometry">
            <mxPoint x="258.75" y="253" as="sourcePoint" />
            <mxPoint x="348.75" y="243" as="targetPoint" />
          </mxGeometry>
        </mxCell>
        <mxCell id="CCf79S8uZNMhcZRSeFlY-1" value="Year" style="ellipse;whiteSpace=wrap;html=1;align=center;labelBackgroundColor=none;fontFamily=Times New Roman;rounded=1;fontColor=#ffffff;fillColor=#0d1117;strokeColor=#FFFFFF;" parent="1" vertex="1">
          <mxGeometry x="490.5" y="259" width="40" height="40" as="geometry" />
        </mxCell>
        <mxCell id="CCf79S8uZNMhcZRSeFlY-2" value="" style="endArrow=none;html=1;rounded=1;exitX=0.5;exitY=1;exitDx=0;exitDy=0;entryX=0.5;entryY=0;entryDx=0;entryDy=0;labelBackgroundColor=none;fontColor=#ffffff;fontFamily=Times New Roman;strokeColor=#ffffff;" parent="1" source="CCf79S8uZNMhcZRSeFlY-1" target="aia2x_jUWNvBXvAyQFXD-50" edge="1">
          <mxGeometry relative="1" as="geometry">
            <mxPoint x="416.5" y="338" as="sourcePoint" />
            <mxPoint x="547.75" y="318" as="targetPoint" />
          </mxGeometry>
        </mxCell>
        <mxCell id="CCf79S8uZNMhcZRSeFlY-4" value="CGPA" style="ellipse;whiteSpace=wrap;html=1;align=center;labelBackgroundColor=none;fontFamily=Times New Roman;rounded=1;fontColor=#ffffff;fillColor=#0d1117;strokeColor=#FFFFFF;" parent="1" vertex="1">
          <mxGeometry x="381" y="189.91" width="50" height="40" as="geometry" />
        </mxCell>
        <mxCell id="CCf79S8uZNMhcZRSeFlY-5" value="" style="endArrow=none;html=1;rounded=1;exitX=0;exitY=0.5;exitDx=0;exitDy=0;entryX=1;entryY=0.75;entryDx=0;entryDy=0;labelBackgroundColor=none;fontColor=#ffffff;fontFamily=Times New Roman;strokeColor=#ffffff;" parent="1" source="CCf79S8uZNMhcZRSeFlY-4" target="aia2x_jUWNvBXvAyQFXD-1" edge="1">
          <mxGeometry relative="1" as="geometry">
            <mxPoint x="221" y="253" as="sourcePoint" />
            <mxPoint x="309" y="219" as="targetPoint" />
          </mxGeometry>
        </mxCell>
        <mxCell id="fYpIgJE3dcnG-av99oQp-1" value="Total Credit Hours" style="ellipse;whiteSpace=wrap;html=1;align=center;labelBackgroundColor=none;fontFamily=Times New Roman;rounded=1;fontColor=#ffffff;fillColor=#0d1117;strokeColor=#ffffff;" parent="1" vertex="1">
          <mxGeometry x="321" y="236" width="110" height="40" as="geometry" />
        </mxCell>
        <mxCell id="fYpIgJE3dcnG-av99oQp-2" value="" style="endArrow=none;html=1;rounded=1;exitX=0;exitY=0.5;exitDx=0;exitDy=0;entryX=1;entryY=1;entryDx=0;entryDy=0;labelBackgroundColor=none;fontColor=#ffffff;fontFamily=Times New Roman;strokeColor=#ffffff;" parent="1" source="fYpIgJE3dcnG-av99oQp-1" target="aia2x_jUWNvBXvAyQFXD-1" edge="1">
          <mxGeometry relative="1" as="geometry">
            <mxPoint x="281.63" y="372" as="sourcePoint" />
            <mxPoint x="290.88" y="322" as="targetPoint" />
          </mxGeometry>
        </mxCell>
        <mxCell id="IbMjD__gBAXZPxn0JA4z-2" value="&lt;font style=&quot;font-size: 14px;&quot;&gt;&lt;b&gt;Notification&lt;/b&gt;&lt;/font&gt;" style="whiteSpace=wrap;html=1;align=center;labelBackgroundColor=none;fontFamily=Times New Roman;rounded=1;fontColor=#ffffff;fillColor=#0d1117;strokeColor=#FFFFFF;" vertex="1" parent="1">
          <mxGeometry x="312" y="471" width="110" height="40" as="geometry" />
        </mxCell>
        <mxCell id="IbMjD__gBAXZPxn0JA4z-3" value="Notification ID" style="ellipse;whiteSpace=wrap;html=1;align=center;fontStyle=4;labelBackgroundColor=none;fontFamily=Times New Roman;rounded=1;fontColor=#ffffff;fillColor=#0d1117;strokeColor=#FFFFFF;" vertex="1" parent="1">
          <mxGeometry x="295" y="541" width="94" height="40" as="geometry" />
        </mxCell>
        <mxCell id="IbMjD__gBAXZPxn0JA4z-4" value="" style="endArrow=none;html=1;rounded=1;exitX=0.5;exitY=0;exitDx=0;exitDy=0;entryX=0.25;entryY=1;entryDx=0;entryDy=0;labelBackgroundColor=none;fontColor=#ffffff;fontFamily=Times New Roman;strokeColor=#FFFFFF;" edge="1" parent="1" source="IbMjD__gBAXZPxn0JA4z-3" target="IbMjD__gBAXZPxn0JA4z-2">
          <mxGeometry relative="1" as="geometry">
            <mxPoint x="22" y="221" as="sourcePoint" />
            <mxPoint x="42" y="251" as="targetPoint" />
          </mxGeometry>
        </mxCell>
        <mxCell id="IbMjD__gBAXZPxn0JA4z-5" value="Message" style="ellipse;whiteSpace=wrap;html=1;align=center;labelBackgroundColor=none;fontFamily=Times New Roman;rounded=1;fontColor=#ffffff;fillColor=#0d1117;strokeColor=#FFFFFF;" vertex="1" parent="1">
          <mxGeometry x="402.5" y="541" width="67.5" height="40" as="geometry" />
        </mxCell>
        <mxCell id="IbMjD__gBAXZPxn0JA4z-6" value="" style="endArrow=none;html=1;rounded=1;entryX=0.75;entryY=1;entryDx=0;entryDy=0;exitX=0.5;exitY=0;exitDx=0;exitDy=0;labelBackgroundColor=none;fontColor=#ffffff;fontFamily=Times New Roman;strokeColor=#FFFFFF;" edge="1" parent="1" source="IbMjD__gBAXZPxn0JA4z-5" target="IbMjD__gBAXZPxn0JA4z-2">
          <mxGeometry relative="1" as="geometry">
            <mxPoint x="432" y="551" as="sourcePoint" />
            <mxPoint x="512" y="321" as="targetPoint" />
          </mxGeometry>
        </mxCell>
        <mxCell id="IbMjD__gBAXZPxn0JA4z-7" value="Icon" style="ellipse;whiteSpace=wrap;html=1;align=center;labelBackgroundColor=none;fontFamily=Times New Roman;rounded=1;fontColor=#ffffff;fillColor=#0d1117;strokeColor=#FFFFFF;" vertex="1" parent="1">
          <mxGeometry x="440.5" y="451" width="50" height="40" as="geometry" />
        </mxCell>
        <mxCell id="IbMjD__gBAXZPxn0JA4z-8" value="Anomaly Type" style="ellipse;whiteSpace=wrap;html=1;align=center;labelBackgroundColor=none;fontFamily=Times New Roman;rounded=1;fontColor=#ffffff;fillColor=#0d1117;strokeColor=#FFFFFF;" vertex="1" parent="1">
          <mxGeometry x="361.5" y="396" width="100" height="40" as="geometry" />
        </mxCell>
        <mxCell id="IbMjD__gBAXZPxn0JA4z-9" value="DateTime" style="ellipse;whiteSpace=wrap;html=1;align=center;labelBackgroundColor=none;fontFamily=Times New Roman;rounded=1;fontColor=#ffffff;fillColor=#0d1117;strokeColor=#FFFFFF;" vertex="1" parent="1">
          <mxGeometry x="239.5" y="424" width="80" height="40" as="geometry" />
        </mxCell>
        <mxCell id="IbMjD__gBAXZPxn0JA4z-10" value="" style="endArrow=none;html=1;rounded=1;exitX=0.75;exitY=0;exitDx=0;exitDy=0;entryX=0.5;entryY=1;entryDx=0;entryDy=0;labelBackgroundColor=none;fontColor=#ffffff;fontFamily=Times New Roman;strokeColor=#FFFFFF;" edge="1" parent="1" source="IbMjD__gBAXZPxn0JA4z-2" target="IbMjD__gBAXZPxn0JA4z-8">
          <mxGeometry relative="1" as="geometry">
            <mxPoint x="334.5" y="561" as="sourcePoint" />
            <mxPoint x="359.5" y="531" as="targetPoint" />
          </mxGeometry>
        </mxCell>
        <mxCell id="IbMjD__gBAXZPxn0JA4z-11" value="" style="endArrow=none;html=1;rounded=1;exitX=0;exitY=0.5;exitDx=0;exitDy=0;entryX=1;entryY=0.5;entryDx=0;entryDy=0;labelBackgroundColor=none;fontColor=#ffffff;fontFamily=Times New Roman;strokeColor=#FFFFFF;" edge="1" parent="1" source="IbMjD__gBAXZPxn0JA4z-7" target="IbMjD__gBAXZPxn0JA4z-2">
          <mxGeometry relative="1" as="geometry">
            <mxPoint x="344.5" y="571" as="sourcePoint" />
            <mxPoint x="369.5" y="541" as="targetPoint" />
          </mxGeometry>
        </mxCell>
        <mxCell id="IbMjD__gBAXZPxn0JA4z-13" value="" style="endArrow=none;html=1;rounded=1;exitX=0;exitY=0.25;exitDx=0;exitDy=0;entryX=0.5;entryY=1;entryDx=0;entryDy=0;labelBackgroundColor=none;fontColor=#ffffff;fontFamily=Times New Roman;strokeColor=#FFFFFF;" edge="1" parent="1" source="IbMjD__gBAXZPxn0JA4z-2" target="IbMjD__gBAXZPxn0JA4z-9">
          <mxGeometry relative="1" as="geometry">
            <mxPoint x="404.5" y="480.99" as="sourcePoint" />
            <mxPoint x="421.5" y="445.99" as="targetPoint" />
          </mxGeometry>
        </mxCell>
      </root>
    </mxGraphModel>
  </diagram>
</mxfile>
